<svg width="56" height="56" viewBox="0 0 56 56" fill="none" xmlns="http://www.w3.org/2000/svg">
<path d="M22.5224 11.4826L19.2507 3.5L15.9774 11.4826C17.0571 11.2878 18.1518 11.1874 19.249 11.1825C20.369 11.1825 21.4592 11.2962 22.5224 11.4826Z" fill="white"/>
<path d="M9.4325 20.9991C9.4325 19.8809 9.54625 18.7906 9.73263 17.7275L1.75 21.0009L9.73263 24.2725C9.53777 23.1921 9.43735 22.0969 9.4325 20.9991Z" fill="white"/>
<path d="M28.2939 16.5838L31.625 8.62567L23.6652 11.9559C24.5668 12.5816 25.4124 13.2845 26.1922 14.0568C26.9647 14.8366 27.668 15.6821 28.2939 16.5838Z" fill="white"/>
<path d="M12.3078 14.0568C13.0874 13.2843 13.9329 12.5814 14.8348 11.9559L6.87488 8.62567L10.206 16.5838C10.8319 15.6821 11.5352 14.8366 12.3078 14.0568Z" fill="white"/>
<path d="M48.5861 31.1692C48.4173 31.0712 48.2466 30.9767 48.0743 30.8883L48.0751 30.807C48.0751 23.6416 42.3141 17.8097 35.2328 17.8097C33.7208 17.8097 32.2499 18.0845 30.8718 18.5911L28.7674 17.7283C28.8671 18.2971 28.9284 18.8781 28.9739 19.4635C28.4209 19.7758 27.895 20.1328 27.3919 20.5248C27.1443 16.2373 23.5988 12.8345 19.2491 12.8345C17.0833 12.8345 15.0061 13.6949 13.4746 15.2263C11.9431 16.7578 11.0828 18.835 11.0828 21.0008C11.0828 23.3957 12.1275 25.5333 13.7708 27.0252C13.3639 27.4015 12.9806 27.8031 12.6228 28.2301C12.5186 28.1321 12.4075 28.0446 12.306 27.9431C11.5337 27.1633 10.8308 26.3178 10.2051 25.4161L6.87488 33.3751L10.4834 31.8648C10.3478 32.2192 10.2244 32.5806 10.1194 32.9507L9.74926 34.2545C9.34628 34.5171 8.96316 34.8089 8.60301 35.1277C7.54747 36.0631 6.7027 37.212 6.12466 38.4984C5.54661 39.7848 5.24848 41.1794 5.25001 42.5897C5.25001 46.8737 7.95201 50.6528 11.9735 51.9968C12.9623 52.3311 13.9983 52.5 15.0448 52.5H42.9546C43.7964 52.5 44.6513 52.4002 45.4974 52.2007C50.6476 51.0046 54.25 46.4257 54.25 41.069C54.25 37.0002 52.08 33.2071 48.5861 31.1692ZM44.758 48.9825C44.1674 49.123 43.5626 49.195 42.9555 49.1968H15.0448C14.3487 49.1963 13.6574 49.0823 12.9981 48.8591C10.3959 47.9893 8.51638 45.5113 8.51638 42.5888C8.51638 40.6 9.38613 38.822 10.7573 37.6118C11.3819 37.0575 12.1082 36.6296 12.8958 36.3518C13.5859 36.1059 14.3129 35.9793 15.0456 35.9773C17.15 35.9773 19.0173 36.9897 20.2116 38.556L20.2694 38.5551C18.8834 35.973 16.2925 34.1521 13.2589 33.8598C14.3876 29.8777 18.0084 26.9561 22.3055 26.9561C22.764 26.9561 23.2103 27.0007 23.6513 27.0655C24.5236 27.1923 25.3566 27.4347 26.1345 27.7847C27.5908 28.4479 28.8566 29.4673 29.8148 30.7489C30.7731 32.0304 31.393 33.5328 31.6173 35.1172L31.619 35.0612C31.6227 33.2926 31.1898 31.5504 30.3587 29.9892C29.5276 28.428 28.324 27.0961 26.8546 26.1117C28.4883 23.1332 31.626 21.112 35.2328 21.112C40.5213 21.112 44.807 25.4528 44.807 30.8052C44.807 31.066 44.7895 31.3188 44.7694 31.5735C42.6195 31.7394 40.5818 32.5999 38.9638 34.0252C40.6418 33.0455 42.6217 32.7173 44.5261 33.103C45.381 33.2756 46.2012 33.589 46.9534 34.0305C48.1819 34.7485 49.2005 35.7764 49.9074 37.0113C50.6143 38.2463 50.9848 39.6451 50.9819 41.0681C50.9836 44.926 48.3236 48.1538 44.758 48.9825Z" fill="white"/>
</svg>
