<svg width="40" height="40" viewBox="0 0 40 40" fill="none" xmlns="http://www.w3.org/2000/svg">
<path d="M14.6043 6.38188L12.5012 1.25L10.3962 6.38188C11.0905 6.25686 11.7944 6.19225 12.4999 6.18875C13.2199 6.18875 13.9206 6.2625 14.6043 6.38188Z" fill="white"/>
<path d="M6.18937 12.4994C6.18937 11.7806 6.26188 11.08 6.3825 10.3963L1.25 12.5006L6.38188 14.6038C6.25668 13.9092 6.19227 13.2051 6.18937 12.4994Z" fill="white"/>
<path d="M8.03811 8.03686C8.53901 7.54005 9.08232 7.08792 9.66186 6.68561L4.54498 4.54498L6.68686 9.66123C7.08871 9.08115 7.54087 8.53759 8.03811 8.03686Z" fill="white"/>
<path d="M35.3194 9.20312C35.2175 9.14481 35.1141 9.08916 35.0094 9.03625V8.9875C35.0094 4.72188 31.5187 1.25 27.2287 1.25C24.56 1.25 22.085 2.61438 20.6612 4.83875C20.6062 4.83 20.5506 4.8225 20.495 4.81313C20.1312 4.759 19.764 4.73101 19.3962 4.72937C17.1319 4.72937 15.0356 5.73813 13.605 7.36938C12.8394 7.20445 12.0466 7.21289 11.2847 7.39409C10.5228 7.57528 9.81106 7.92465 9.20168 8.41658C8.5923 8.9085 8.10069 9.53054 7.76288 10.2371C7.42507 10.9437 7.24962 11.7168 7.24937 12.5C7.24949 13.2547 7.4132 14.0004 7.72923 14.6858C8.04526 15.3712 8.5061 15.9799 9.08 16.47C9.12687 17.0656 9.26625 17.6394 9.48125 18.1781C8.96842 17.8115 8.48507 17.4052 8.03562 16.9631C7.53934 16.4616 7.08763 15.9179 6.68562 15.3381L4.54437 20.455L9.55625 18.3581C9.92135 19.1909 10.4743 19.9279 11.1719 20.5112L12.5012 23.75L13.3556 21.6656C13.8891 21.8214 14.4418 21.9011 14.9975 21.9025H31.9069C32.4175 21.9025 32.9356 21.8431 33.4481 21.7244C36.5687 21.0119 38.75 18.2862 38.75 15.0962C38.75 12.6744 37.435 10.4163 35.3194 9.20312ZM33 19.8075C32.6422 19.8921 32.2758 19.9351 31.9081 19.9356H14.9975C14.576 19.9357 14.1573 19.8678 13.7575 19.7344C12.1819 19.2175 11.0425 17.7419 11.0425 16.0012C11.0425 14.8175 11.5694 13.7594 12.3994 13.0394C12.7794 12.7089 13.2192 12.4543 13.695 12.2894C14.1137 12.1428 14.5539 12.0674 14.9975 12.0662C16.2731 12.0662 17.4044 12.67 18.1287 13.6019L18.1644 13.6012C17.7387 12.8236 17.1289 12.1621 16.3883 11.6747C15.6477 11.1873 14.7989 10.8889 13.9162 10.8056C14.2616 9.61938 14.9827 8.57731 15.9712 7.83612C16.9596 7.09494 18.162 6.69471 19.3975 6.69563C19.6756 6.69563 19.9469 6.7225 20.2131 6.76063C20.7318 6.83401 21.238 6.97828 21.7175 7.18937C22.5945 7.57757 23.3589 8.1814 23.9396 8.94463C24.5204 9.70786 24.8985 10.6056 25.0387 11.5544L25.04 11.5206C25.04 9.29375 23.8919 7.33563 22.1537 6.19313C22.6578 5.28974 23.3941 4.53748 24.2865 4.0142C25.1789 3.49093 26.1949 3.21565 27.2294 3.21687C30.4331 3.21687 33.03 5.80062 33.03 8.98687C33.03 9.14187 33.0194 9.2925 33.0081 9.44438C31.7092 9.54131 30.4759 10.0531 29.49 10.9044C30.5098 10.3193 31.707 10.1236 32.86 10.3538C33.3862 10.4581 33.8806 10.6475 34.33 10.9062C35.7881 11.7425 36.7712 13.3031 36.7712 15.0956C36.7712 17.3931 35.16 19.315 33 19.8075Z" fill="white"/>
<path d="M20.6301 29.7344C21.0513 28.5781 21.0795 26.9956 20.7938 25.1619C19.4182 26.3644 18.3988 27.6131 17.9788 28.7688C17.6213 29.7494 17.9251 30.7619 18.6576 31.0288C19.3901 31.2956 20.2738 30.7156 20.6301 29.7344Z" fill="white"/>
<path d="M26.1643 29.7344C26.5843 28.5781 26.6137 26.9956 26.328 25.1619C24.9512 26.3644 23.933 27.6131 23.5118 28.7688C23.1555 29.7494 23.458 30.7619 24.1905 31.0288C24.923 31.2956 25.8068 30.7156 26.1643 29.7344Z" fill="white"/>
<path d="M29.0462 28.7688C28.6893 29.7494 28.9924 30.7619 29.7249 31.0288C30.4574 31.2956 31.3412 30.715 31.6981 29.7344C32.1187 28.5781 32.1474 26.9956 31.8618 25.1619C30.4849 26.3644 29.4662 27.6131 29.0462 28.7688Z" fill="white"/>
<path d="M15.0962 29.7344C15.5168 28.5781 15.5456 26.9956 15.2599 25.1619C13.8837 26.3644 12.8649 27.6131 12.4443 28.7688C12.0874 29.7494 12.3906 30.7619 13.1231 31.0288C13.8556 31.2956 14.7393 30.7156 15.0962 29.7344Z" fill="white"/>
<path d="M13.6344 36.425C13.2776 37.4056 13.5807 38.4181 14.3132 38.685C15.0457 38.9519 15.9294 38.3713 16.2863 37.3906C16.7069 36.2344 16.7357 34.6519 16.4501 32.8181C15.0738 34.0206 14.0551 35.2694 13.6344 36.425Z" fill="white"/>
<path d="M19.1688 36.425C18.8119 37.4056 19.1151 38.4181 19.8476 38.685C20.5801 38.9519 21.4638 38.3713 21.8207 37.3906C22.2413 36.2344 22.2701 34.6519 21.9844 32.8181C20.6082 34.0206 19.5894 35.2694 19.1688 36.425Z" fill="white"/>
<path d="M24.7019 36.425C24.3457 37.4056 24.6482 38.4181 25.3807 38.685C26.1132 38.9519 26.9969 38.3713 27.3544 37.3906C27.7744 36.2344 27.8038 34.6519 27.5182 32.8181C26.1413 34.0206 25.1232 35.2694 24.7019 36.425Z" fill="white"/>
<path d="M8.10005 36.425C7.7438 37.4056 8.0463 38.4181 8.7788 38.685C9.5113 38.9519 10.3951 38.3713 10.7532 37.3906C11.1732 36.2344 11.2026 34.6519 10.9169 32.8181C9.53943 34.0206 8.5213 35.2694 8.10005 36.425Z" fill="white"/>
</svg>
