<svg width="40" height="40" viewBox="0 0 40 40" fill="none" xmlns="http://www.w3.org/2000/svg">
<path d="M13.0075 7.42249L10.9375 7.45999C6.26 7.63124 2.5 11.4937 2.5 16.21C2.50159 17.5358 2.80495 18.8438 3.38711 20.035C3.96926 21.2262 4.81492 22.2692 5.86 23.085C5.29799 24.0452 5.00119 25.1374 5 26.25C5 29.6975 7.8025 32.5 11.25 32.5H31.25C34.6975 32.5 37.5 29.6975 37.5 26.25C37.5 23.725 35.9875 21.475 33.7113 20.5075C33.3587 17.485 30.82 15.1225 27.7337 15C27.0796 13.8588 26.1353 12.9108 24.9966 12.2523C23.858 11.5937 22.5654 11.2479 21.25 11.25C19.8522 11.2531 18.4829 11.6459 17.296 12.3843C16.1092 13.1227 15.1517 14.1774 14.5312 15.43C12.8713 14.7462 11.68 13.135 11.68 11.2112C11.68 10.5125 11.8263 9.85874 12.11 9.25749L13.0075 7.42249ZM9.375 10.3912C9.34125 10.6787 9.18 10.9125 9.18 11.2112C9.18 13.6525 10.415 15.7912 12.305 17.07C11.245 17.7637 10.415 18.8475 10.1175 20.1175C9.155 20.2925 8.29125 20.6925 7.53875 21.25C6.75188 20.6663 6.11247 19.9067 5.67165 19.0318C5.23082 18.1569 5.00081 17.1909 5 16.2112C5 13.4125 6.855 11.1962 9.375 10.3912ZM21.25 13.75C23.2563 13.75 25.0688 14.95 25.86 16.7975L26.21 17.6562L27.3438 17.5387C27.3975 17.5287 27.4412 17.5 27.5 17.5C29.565 17.5 31.245 19.19 31.25 21.1725L31.2113 22.3825L32.1875 22.6175C32.9931 22.8246 33.7069 23.2941 34.2162 23.9518C34.7254 24.6096 35.0012 25.4181 35 26.25C35 28.315 33.315 30 31.25 30H11.25C9.185 30 7.5 28.315 7.5 26.25C7.5 24.185 9.185 22.5 11.25 22.5H12.5V21.25C12.5 19.8725 13.6188 18.755 14.8825 18.75L16.1325 18.8287L16.3675 17.7737C16.8363 15.4487 18.8775 13.75 21.25 13.75Z" fill="white"/>
</svg>
